PathFileType	4	(x/y/z)	S09_PSF_T11
DataRate	CameraRate	NumFrames	NumMarkers	Units	OrigDataRate	OrigDataStartFrame	OrigNumFrames
240	240	4	51	mm	240	1	458
Frame#	Time	Sternum			R.Acromium			L.Acromium			Top.Head			R.ASIS			L.ASIS			R.PSIS			L.PSIS			R.Great.Tro			L.Great.Tro			R.Iliac.Crest			L.Iliac.Crest			V.Sacral			R.Thigh.Upper.Post			R.Thigh.Lower.Ant			R.Thigh.Lower.Post			R.Thigh.Upper.Ant			R.Knee.Lat			R.Knee.Med			R.Shank.Upper.Post			R.Shank.Lower.Ant			R.Shank.Lower.Post			R.Shank.Upper.Ant			R.Ankle.Lat			R.Ankle.Med			R.Heel.Upper			R.Heel.Med			R.Heel.Lat			R.Toe.Lat			R.Toe.Med			R.Toe.Tip			L.Thigh.Upper.Post			L.Thigh.Lower.Ant			L.Thigh.Lower.Post			L.Thigh.Upper.Ant			L.Knee.Lat			L.Knee.Med			L.Shank.Upper.Post			L.Shank.Lower.Ant			L.Shank.Lower.Post			L.Shank.Upper.Ant			L.Ankle.Lat			L.Ankle.Med			L.Heel.Upper			L.Heel.Med			L.Heel.Lat			L.Toe.Lat			L.Toe.Med			L.Toe.Tip			Cervical.Spine			Back			
		X1	Y1	Z1	X2	Y2	Z2	X3	Y3	Z3	X4	Y4	Z4	X5	Y5	Z5	X6	Y6	Z6	X7	Y7	Z7	X8	Y8	Z8	X9	Y9	Z9	X10	Y10	Z10	X11	Y11	Z11	X12	Y12	Z12	X13	Y13	Z13	X14	Y14	Z14	X15	Y15	Z15	X16	Y16	Z16	X17	Y17	Z17	X18	Y18	Z18	X19	Y19	Z19	X20	Y20	Z20	X21	Y21	Z21	X22	Y22	Z22	X23	Y23	Z23	X24	Y24	Z24	X25	Y25	Z25	X26	Y26	Z26	X27	Y27	Z27	X28	Y28	Z28	X29	Y29	Z29	X30	Y30	Z30	X31	Y31	Z31	X32	Y32	Z32	X33	Y33	Z33	X34	Y34	Z34	X35	Y35	Z35	X36	Y36	Z36	X37	Y37	Z37	X38	Y38	Z38	X39	Y39	Z39	X40	Y40	Z40	X41	Y41	Z41	X42	Y42	Z42	X43	Y43	Z43	X44	Y44	Z44	X45	Y45	Z45	X46	Y46	Z46	X47	Y47	Z47	X48	Y48	Z48	X49	Y49	Z49	X50	Y50	Z50	X51	Y51	Z51	

1	0	NaN	NaN	NaN	-1729	1401.5	503.79	-1749.7	1397.1	192.09	-1720.6	1707.2	345.15	NaN	NaN	NaN	NaN	NaN	NaN	NaN	NaN	NaN	NaN	NaN	NaN	-1745.4	908.07	540.24	NaN	NaN	NaN	-1739	1072.7	512.43	-1734.3	1081.2	185.61	-1861.9	981.67	324.42	-1834.8	677.46	496.87	NaN	NaN	NaN	-1870.5	594.54	465.6	NaN	NaN	NaN	-1852.8	495.48	450.58	-1848.9	489.87	330.48	-2002.6	381.8	448.28	-1973.9	292.72	438.94	-2048.3	319.62	433.8	-1937.8	358.62	449.62	-2121	143.84	410.23	-2089.2	145.83	318.29	-2189.8	143.58	357.97	-2188.6	109.19	330.21	-2197.5	114.91	393.76	NaN	NaN	NaN	NaN	NaN	NaN	NaN	NaN	NaN	-1626.4	637.72	199.16	NaN	NaN	NaN	-1578.8	562.82	221.73	NaN	NaN	NaN	-1498.2	507.08	219.31	-1491.8	524.55	353.17	-1493.9	362.88	208.17	-1399.9	304.78	220.54	-1464.6	291.46	216.01	-1430.4	376.02	213.79	-1362.3	114.79	240.11	-1339.5	127.22	331.88	-1400.2	51.724	299.04	-1371.3	41.751	330.62	-1381.6	23.539	272.15	-1239.4	107.7	201.43	-1208	144.31	305.11	-1181.7	182.65	242.22	-1817.6	1448.9	364.22	-1852.1	1177.9	351.75
2	0.0041667	NaN	NaN	NaN	-1723.8	1400.9	503.1	-1744.4	1396.5	191.46	-1715.9	1706.7	344.79	NaN	NaN	NaN	NaN	NaN	NaN	NaN	NaN	NaN	NaN	NaN	NaN	-1739.5	907.42	539.71	NaN	NaN	NaN	-1733	1072.1	511.85	-1728	1080.6	185.02	-1855.5	981.01	323.61	-1829	676.8	496.29	NaN	NaN	NaN	-1864.5	593.82	465.14	NaN	NaN	NaN	-1846.8	494.68	450.6	-1842.8	488.97	330.36	-1997.7	382.51	448.32	-1969.6	293.55	438.35	-2043.3	320.65	433.88	-1932.9	358.62	449.7	-2118.8	145.83	410.45	-2086.5	147.23	318.72	-2187.4	146.77	358.06	-2186.6	112.5	330.09	-2195.8	117.86	393.64	NaN	NaN	NaN	NaN	NaN	NaN	NaN	NaN	NaN	-1620.6	637.22	199.08	NaN	NaN	NaN	-1573.4	562.19	221.75	NaN	NaN	NaN	-1493	506.16	219.28	-1486.1	523.9	352.65	-1489	362.11	208.21	-1395.3	303.63	220.98	-1460.1	290.54	216.11	-1425.6	374.95	214.19	-1359.1	113.74	240.49	-1336.5	125.44	332.43	-1398.1	52.761	299.47	-1369.6	41.469	330.87	-1380.5	24.114	272.34	-1236.8	104.92	202.5	-1205	140.67	306.33	-1178	178.75	243.35	-1812.5	1448.1	363.56	-1846.3	1176.9	351.15
3	0.0083333	NaN	NaN	NaN	-1718.4	1400.2	502.39	-1738.9	1395.9	190.8	-1711	1706.2	344.42	NaN	NaN	NaN	NaN	NaN	NaN	NaN	NaN	NaN	NaN	NaN	NaN	-1733.3	906.75	539.16	NaN	NaN	NaN	-1726.7	1071.5	511.25	-1721.5	1080	184.39	-1848.9	980.33	322.77	-1822.7	676.08	495.71	NaN	NaN	NaN	-1858.1	593.05	464.67	NaN	NaN	NaN	-1840.5	493.83	450.65	-1836.3	488.01	330.27	-1992.5	383.25	448.39	-1965.4	294.36	437.77	-2038.1	321.73	433.98	-1927.8	358.63	449.81	-2116.4	147.93	410.67	-2083.6	148.72	319.18	-2184.8	150.14	358.15	-2184.4	116.01	329.96	-2194	121	393.5	NaN	NaN	NaN	NaN	NaN	NaN	NaN	NaN	NaN	-1614.7	636.73	198.98	NaN	NaN	NaN	-1567.8	561.55	221.73	NaN	NaN	NaN	-1487.7	505.23	219.23	-1480.1	523.22	352.11	-1483.9	361.35	208.23	-1390.6	302.46	221.42	-1455.4	289.63	216.2	-1420.6	373.88	214.58	-1355.7	112.68	240.86	-1333.3	123.64	332.97	-1395.9	53.851	299.89	-1368	41.216	331.11	-1379.4	24.711	272.51	-1234.1	102.02	203.6	-1201.9	136.86	307.56	-1174.2	174.67	244.51	-1807.2	1447.2	362.87	-1840.2	1176	350.52
4	0.0125	NaN	NaN	NaN	-1712.9	1399.6	501.66	-1733.2	1395.3	190.11	-1706	1705.7	344.04	NaN	NaN	NaN	NaN	NaN	NaN	NaN	NaN	NaN	NaN	NaN	NaN	-1726.9	906.06	538.59	NaN	NaN	NaN	-1720.2	1070.9	510.62	-1714.7	1079.4	183.73	-1842.1	979.62	321.88	-1816.2	675.32	495.14	NaN	NaN	NaN	-1851.4	592.22	464.23	NaN	NaN	NaN	-1833.9	492.93	450.74	-1829.5	486.98	330.22	-1987	384.02	448.48	-1961.4	295.12	437.22	-2032.7	322.86	434.11	-1922.4	358.63	449.96	-2113.8	150.13	410.9	-2080.5	150.29	319.67	-2182	153.68	358.24	-2182.1	119.71	329.81	-2191.9	124.35	393.34	NaN	NaN	NaN	NaN	NaN	NaN	NaN	NaN	NaN	-1608.6	636.25	198.86	NaN	NaN	NaN	-1562.1	560.92	221.69	-1536.5	653.78	181.33	-1482.1	504.31	219.14	-1474	522.53	351.56	-1478.7	360.6	208.25	-1385.7	301.29	221.85	-1450.5	288.73	216.27	-1415.4	372.81	214.95	-1352.3	111.61	241.21	-1330.2	121.82	333.48	-1393.7	54.985	300.29	-1366.3	41.001	331.34	-1378.3	25.327	272.67	-1231.4	99.012	204.71	-1198.8	132.92	308.8	-1170.3	170.41	245.69	-1801.8	1446.4	362.14	-1833.9	1175	349.84
